<svg xmlns="http://www.w3.org/2000/svg" width="1024" height="1024"><path fill="#cc6c4a" d="M628.085 169.815c3.38-.002 6.761-.02 10.142-.04 63.277-.165 124.085 16.268 170.148 61.35 34.643 35.422 47.155 81.965 46.983 130.36-.16 11.76-1.109 22.953-3.358 34.515-.182 1.236-.364 2.472-.55 3.746-1.98 12.293-6.815 23.765-11.45 35.254l-1.945 4.84C827.33 465.17 811.22 487.464 792 507l-3.723 3.875c-7.934 8.14-16.175 15.33-25.277 22.125l-2.875 2.254C739.569 551.214 697.865 582 670 582l-.312 3.062C667.882 598.03 662.11 609.567 656 621l-2.457 4.625c-7.027 12.952-15.15 24.08-24.543 35.375l-2.937 3.687L624 667h-2l-2 4-4 4h-2v2h-2l-2 4a199 199 0 0 1-9 6.812l-2.634 1.901A3137 3137 0 0 1 591 695l-2.918 2.191c-7.154 5.307-15.06 9.023-23.082 12.809l-3.672 1.781c-20.66 9.59-42.907 15.232-65.453 17.844l-3.23.374c-17.649 1.897-34.992 2.06-52.707 1.126q-4.554-.218-9.107-.428-4.539-.212-9.078-.428C367.858 727.753 317.778 732.37 275 769l-2.555 2c-12.537 9.822-23.747 21.382-33.445 34l-2.375 2.965c-8.252 10.431-15.83 21.453-21.937 33.285-3.857 6.815-8.195 10.454-15.688 12.75-9.581.605-16.245.2-23.812-6.25-5.831-6.86-6.625-12.152-6.543-20.935.588-6.318 2.94-11.584 5.543-17.315l1.624-3.74q1.699-3.903 3.43-7.793a941 941 0 0 0 5.168-11.92c7.703-18.018 15.72-35.747 24.934-53.05 1.872-3.522 3.727-7.047 5.562-10.587l1.47-2.829 4.081-7.874c2.357-4.362 4.913-8.507 7.543-12.707a693 693 0 0 0 4.46-8.175c2.463-4.517 5.052-8.956 7.665-13.388l1.686-2.86c4.581-7.7 9.462-15.144 14.533-22.534C259 648 259 648 261.454 643.5c2.602-4.598 5.517-8.55 8.796-12.688 4.052-5.208 7.882-10.401 11.375-16 4.614-7.367 9.927-14.05 15.375-20.812q2.849-3.621 5.688-7.25L308 580l2.012-2.574C318.853 566.212 328.404 555.57 338 545a5814 5814 0 0 0 4.625-5.125l2.04-2.258a395 395 0 0 0 5.476-6.289c4.477-5.02 9.194-9.734 13.984-14.453 5.206-5.13 10.242-10.212 14.875-15.875a800 800 0 0 1 8-7l3.313-3.375a115 115 0 0 1 8.812-7.813c4.235-3.402 8.233-6.963 12.188-10.687 6.585-6.142 13.553-11.64 20.687-17.125q3.596-2.841 7.188-5.688c4.839-3.8 9.72-7.51 14.722-11.093a780 780 0 0 0 7.211-5.25c9.718-7.116 19.56-13.762 29.879-19.969l2.894-1.761A705 705 0 0 1 545 383l4.969-2.52c13.277-6.535 27.09-11.565 41.031-16.48l4.914-1.754c5.864-1.788 9.963-1.845 16.086-1.246 3.313 2.5 3.313 2.5 5 6 .188 4.062.188 4.062-1 8-4.088 3.91-8.413 6.45-13.437 9-10.11 5.243-20.01 10.819-29.893 16.475a1377 1377 0 0 1-6.967 3.947C540.3 418.982 516.286 436.3 493 454l-3.434 2.59c-6.646 5.05-13.072 10.303-19.414 15.73-3.884 3.303-7.84 6.511-11.812 9.707-2.22 1.872-4.287 3.92-6.34 5.973h-2v2a477 477 0 0 1-8 7l-3.375 3.437C436 503 436 503 434 503v2a342 342 0 0 1-5.492 4.79C416.164 520.67 416.164 520.67 414 525h-2l-2 4a120 120 0 0 1-4.687 4.75c-4.333 4.246-8.357 8.646-12.313 13.25q-3.58 3.959-7.18 7.898C384 557 384 557 383 559h-2l-2 4a246 246 0 0 1-5.312 6.187c-5.795 6.676-11.187 13.583-16.516 20.633a705 705 0 0 1-8.984 11.555c-4.55 5.772-8.918 11.644-13.188 17.625l-2.258 3.125C315.756 645.719 299.966 670.081 285 695l-2.262 3.734A316 316 0 0 0 278 707l1 1 4.563-2.313c50.75-25.673 102.253-25.283 157.96-22.14C490.345 686.257 539.375 678.19 579 648l4.875-3.313c11-7.681 20.5-17.234 28.063-28.312 1.01-1.444 2.02-2.888 3.062-4.375h2l2-4q2.04-3.39 4.125-6.75l2.195-3.547L627 595l-4.887 1.172C540.993 615.174 540.993 615.174 518 603c-5.742-5.423-8.722-10.982-9.164-18.96.241-7.363 1.978-11.565 7.164-17.04 6.084-4.846 9.97-6.093 17.621-6.613l4.732-.338 5.085-.362C612.386 554.477 686.023 536.604 740 491l3.406-2.848c11.692-9.88 21.337-19.947 30.594-32.152l2.125-2.71C786.8 439.3 794.043 423.471 800 407l1.242-3.426c9.821-30.568 10.353-67.497-1.242-97.574l-1.527-3.969c-13.758-33.407-39.21-55.298-71.989-69.226-71.1-28.614-161.347-19.455-230.89 9.638-38.958 16.678-72.425 40.322-102.469 70.182l-3.207 3.178A231 231 0 0 0 372 336l-2.828 3.469c-58.17 72.805-90.444 163.196-113.065 252.48C250.308 614.78 250.308 614.78 245 619c-3.309 1.655-6.365 1.217-10 1-5-3-5-3-8-7-1.215-7.464-.926-14.687-.312-22.188l.284-3.55c2.331-27.531 7.124-54.28 13.028-81.262l.707-3.305c3.406-15.865 8.242-31.29 13.293-46.695l1.03-3.155C266.304 418.788 281.643 384.274 301 354l2.574-4.082C320.791 322.926 340.286 297.61 363 275l3.059-3.164c6.855-7.021 13.847-13.395 21.66-19.332 2.903-2.216 5.687-4.514 8.469-6.879C421.999 224.406 452.935 207.126 484 195l3.145-1.233c16.834-6.526 33.748-11.304 51.407-15.033q3.42-.727 6.828-1.515c9.294-2.117 18.587-3.316 28.058-4.344l4.486-.512c16.75-1.868 33.314-2.55 50.161-2.548"/><path fill="#cc6c49" d="m451 460 1 2 5.125-.187L462 462l-1 5-3 2a150 150 0 0 0-1 6l-2 2v6h-5q-.51 2.999-1 6l-5 1-1 2-3 1-1 4h-4l-1 2h-4l-1 3-2 1-1 3h-3l-1 2h-2l-1 3-3 2v-5l-4 1v-6l-4-1v-2h-2v2h-2v4h-5v5c-1.99.39-3.992.719-6 1l-2 4a131 131 0 0 1-4 7h-2l-.437-3.437L384 516l-3-1-3 5-4-1 1 3h-3l1-4h-2v3h-2c-.437-3.75-.437-3.75 0-8 2.955-3.201 4.738-3.934 9-5l2-5a196 196 0 0 1 7-3 140 140 0 0 0 5-5h2v3h-3l1 2c4.827-1.93 6.51-3.416 10-7h2v-3l-4 1-1-4c2.25-2.75 2.25-2.75 5-5h3l2-4 2-3h4v-2l4.438-1.437L424 470l1-3v2c3 1 3 1 4 1l3-3 1 4c4.508-1.127 8.706-2.195 13-4 .813-3.125.813-3.125 1-6z"/><path fill="#d0927b" d="m574 652 2 1c-2.187 2.563-2.187 2.563-5 5h-3l-1 3-4 1v3a330 330 0 0 1-9 1v2l-5 1v2c-2.52 1.29-2.52 1.29-5.812 2.625l-3.27 1.352C537 676 537 676 534 676l2 5c-2.25 2.438-2.25 2.438-5 4l-2-2 1-1c-7.036-1.851-13.617.457-20.543 2.035-11.36 2.513-22.155 3.515-33.738 3.79C471 688 471 688 467 689c-11.805 1.373-22.48.964-34.125-.937-14.482-2.285-28.815-2.461-43.437-2.438l-3.373-.004c-27.604.004-27.604.004-38.315 3.942-5.955 1.802-11.566 1.944-17.762 2.128-3.72.288-6.574.835-9.988 2.309l-1 2-4 .938-4 1.062-1 3h-2v2l-4 1-1 3-4-3v2h-5l-1 1q-5.495.556-11 1c8.861-13.292 40.057-18.56 55.066-21.7 34.54-6.653 69.512-4.725 104.457-2.753C488.591 686.16 534.311 678.459 574 652"/><path fill="#ca704e" d="M571 701h6v3c-23.915 14.739-53.466 22.432-81.125 25.625l-3.23.374c-17.648 1.898-34.992 2.06-52.707 1.126q-4.554-.218-9.107-.428-4.539-.212-9.078-.428c-40.353-1.884-40.353-1.884-58.585.258C359 731 359 731 353 731v-1q2.993-1.019 6-2l4-2c6.35-1.73 11.885-2.165 18.445-1.871l5.258.197q5.481.239 10.961.485l5.219.193 4.793.213L411 725l-1-3c3 1 3 1 5 3v-3h3l1 2c4.563.813 4.563.813 9 1v-3h2v3l4-1-1 3c4.563.438 4.563.438 9 0l-2-4c3 .375 3 .375 6 1v2h2l1-2 4 2c2.811.19 5.631.261 8.45.266.825 0 .825 0 5.005.007l5.233-.023 5.267.023 4.994-.007 4.604-.007L490 726l1-2v2l2-1c2.351-.294 4.706-.56 7.063-.812 6.285-.8 11.278-2.22 16.937-5.188l4-2-1-4h4l-1 5h5v-2c4.7-.682 9.39-1.029 14.125-1.375 4.581-.587 7.726-1.716 11.875-3.625h4v-2l3.5-.437L565 708v-3l6-1z"/><path fill="#c96e4c" d="M590 172v1l-4.5-.062-4.5.062v2c-3.274.621-6.572 1.12-9.875 1.563-9.951 1.35-9.951 1.35-12.125 2.437l-5.062-.187L549 179l-1 4h-2v3h-2v-3c-3 .188-3 .188-6 1v2l-4 1v-3c-9.433 1.433-9.433 1.433-11 3l-5.312.313c-6.773.51-12.372 2.19-18.688 4.687l-2 3c-2.715 1.098-2.715 1.098-5.937 2.063-3.504 1.06-6 1.895-9.063 3.937h-4v2c-3.867 1.339-6.89 2-11 2v2l-4 2v2l2 1-1 2h-2v2h2v2h-2v6l-4-1-4 2v-3h-6l-2-1c-3.5-.25-3.5-.25-7 0l-2 3h2v2h-5a134 134 0 0 0-6 3h-2v5h-2v-2c-3.937 1.25-3.937 1.25-8 3l-1 2c-2.964 1.61-5.799 2.933-9 4v2c-3.312 2.688-3.312 2.688-7 5l-3-1c19.69-23.832 59.633-40.927 88-52l3.145-1.233c16.829-6.525 33.736-11.291 51.386-15.03q3.52-.748 7.032-1.534a231 231 0 0 1 22.687-3.89l3.023-.393c6.275-.774 12.407-1.134 18.727-.92"/><path fill="#ce856a" d="M800 487c3.625.313 3.625.313 7 2-8.662 17.323-28.702 32.622-44 44l-2.871 2.25C739.577 551.213 697.864 582 670 582q-.508 4-1 8c-.909 3.029-1.89 6.04-3 9h-1a172 172 0 0 1-.25-8.062l-.078-4.536L665 583l3 1v-4c3.833-3.833 6.745-3.95 12-5 3.5-1 3.5-1 6-2l1-2h6v-2l4-1v-2l-2-1h3l-.75-2.875L697 559c3.188-1.312 3.188-1.312 7-2l4-1 5 1v2c4.438-.625 4.438-.625 9-2l1-4h4l-3-5 5-2 1 1q3.502-.991 7-2h4v-2h2v-2h-2v-2c4.175-1.418 7.627-2 12-2v-2h4l-1-3 5-1v-2h4v-4l4-4h4v-2h2v-2h4v-4h2v-2h2v-2h2v-2c4.353-4 4.353-4 8-4v-5l4-1v-3h3l-.25-3.625z"/><path fill="#cd6d4c" d="M466 446c3.438.25 3.438.25 7 1l1 2c5 1 5 1 9 0v-2c3 1 3 1 4 3l4 1v-2c3.5-.125 3.5-.125 7 0-3.448 3.587-7.017 6.648-11 9.625-5.779 4.39-11.335 8.978-16.848 13.695-3.884 3.303-7.84 6.512-11.812 9.707-2.22 1.872-4.287 3.92-6.34 5.973h-2v2a477 477 0 0 1-8 7l-3.375 3.438C436 503 436 503 434 503v2a342 342 0 0 1-5.492 4.79C416.164 520.67 416.164 520.67 414 525h-3c0-5 0-5 1-8l1-5h3l2-2 4-2 1-3 3 1 1-4c2.953-3.04 4.49-3.94 8.75-4.437L439 497l1-5h3l1-3h5c.39-1.99.719-3.992 1-6l4-2v-5c4.43-2.658 6.235-3.224 11-4v-2l-2-1 1-3h2v-7h2l1-2-3-1 2-4-4-1v-3h2z"/><path fill="#cf8466" d="M612 361c3.313 2.5 3.313 2.5 5 6 .188 4.063.188 4.063-1 8-4.334 4.188-9.1 6.824-14.437 9.563-4.225 2.178-8.394 4.336-12.473 6.777L586 393l-2-1 1-3h2c1-3 1-3-.125-6.062L586 380l3-2v-3h-2l-1 3v-4c-3.719-.46-3.719-.46-8.5-.375l-4.781.04c-1.227.11-2.455.22-3.719.335v2a402 402 0 0 1-8.102 2.133C558 379 558 379 554.062 381.25 551 383 551 383 547 382c14.237-7.189 28.985-12.682 44-18l4.922-1.758c5.86-1.785 9.96-1.84 16.078-1.242"/><path fill="#cb6c4a" d="m589 375 1 5h-3a221 221 0 0 0 2 7h-2v2h-2l-1 4h-2v-2l-2 1-1 3q-3.993.554-8 1v2c-3.437 1.438-3.437 1.438-7 2l-1-5h-4v-2c-4.449-.89-8.43-1-13-1v-3h-3v-2h4v-4c3.688-1.562 3.688-1.562 8-3l5-3q4.497-.527 9-1v-2c6.477-1.62 13.948-2.259 20 1"/><path fill="#ce7a5c" d="M547 383v4h-4v2h3v3q4.003-.477 8-1l5 2v2h4v3c3 1 3 1 8 0v-2l3.938-.375L579 395l1-4h2v2l2 1-4.434 2.457c-10.98 6.125-21.722 12.39-32.168 19.398C544 418 544 418 539 420v-4l3-1 1-2 3-2 1-4-3-2v-3h-6v-2h-2v-4h-2v-2h-2l1 4c-3.062.188-3.062.188-7 0-3.437.375-3.437.375-6 1v2c-4.875 1.688-4.875 1.688-10 3l-2-1c32.851-20 32.851-20 39-20m-5 22 2 1Z"/><path fill="#ca6f4c" d="m518 565 2 1a177 177 0 0 1-5 8c-1.753 3.506-1.164 7.17-1 11 2 0 2 0 6-1v2l5 1 2 1v4l2 1-4 1-1 3h-4v2l4 1-2 2c10.728 2.682 22.816.955 33.813.563l3.488-.12c8.34-.323 8.34-.323 11.699-1.443 9.635-.793 19.333-1.276 29-1v1a476 476 0 0 1-13.062 1.938l-3.995.54c-51.247 6.774-51.247 6.774-64.943-.478-5.742-5.423-8.722-10.982-9.164-18.96.275-8.396 3.204-13.08 9.164-19.04"/><path fill="#ca7b5e" d="M571 701h6v3c-40.983 25.258-94.078 30.31-141 27v-1a265 265 0 0 1 8.688-.21l5.496-.087q5.769-.078 11.539-.133l5.527-.093 5.078-.06c4.752-.424 8.267-1.668 12.672-3.417h5l1-2v2l2-1c2.351-.294 4.706-.56 7.063-.812 6.285-.8 11.278-2.22 16.937-5.188l4-2-1-4h4l-1 5h5v-2c4.7-.682 9.39-1.029 14.125-1.375 4.581-.587 7.726-1.716 11.875-3.625h4v-2l3.5-.437L565 708v-3l6-1z"/><path fill="#cb7a5b" d="m442 447 2 1v4h-3l-1 3-5 2v2l-4 4 3 1h-2l-1 5-2 4-4-4-5 3-5 1v2h-4l-2 4-2 3-5 1-2 4 1 3h3v3l-5 3-2.625 2.75L394 501l-3-1v-2h3v-3l-3.625 3.438c-4.337 3.531-5.318 3.72-10.375 4.562a127 127 0 0 0-2 6l-5 2-4 2c3.955-5.724 8.224-10.185 13.43-14.715 2.446-2.175 4.728-4.437 7.007-6.785 3.968-4.023 8.212-7.532 12.622-11.059 3.203-2.659 6.223-5.462 9.253-8.316 5.558-5.188 11.346-9.93 17.372-14.562 3.077-2.378 6.072-4.832 9.066-7.313z"/><path fill="#cc7353" d="M508 404v4h-2l-1 4v-2l-2 1 1 5h-2v5l2 1h-6l-1 3-1-2-2 1v4l-5-1-3 3v-2h-3l-1-2c-3.962.352-6.389 1.194-10 3h-3l-2 5a150 150 0 0 1-6 1l-2 4-5 2-1 3h-2v2c-2.32.414-4.656.749-7 1 10.558-11.2 24.622-19.547 37.438-27.937l3.225-2.113C504.633 404 504.633 404 508 404"/><path fill="#c97d62" d="M590 172v1l-4.5-.062-4.5.062v2c-3.274.621-6.572 1.12-9.875 1.563-9.951 1.35-9.951 1.35-12.125 2.437l-5.062-.187L549 179l-1 4h-2v3h-2v-3c-3 .188-3 .188-6 1v2l-4 1v-3c-9.433 1.433-9.433 1.433-11 3l-5.312.313c-6.773.51-12.372 2.19-18.688 4.687l-2 3c-2.715 1.098-2.715 1.098-5.937 2.063-3.504 1.06-6 1.895-9.063 3.937h-4v2c-2.633.816-2.633.816-6.125 1.563l-3.445.753c-3.136.625-6.273 1.18-9.43 1.684 21.319-15.99 53.966-22.848 79.531-28.264q3.52-.748 7.032-1.533a231 231 0 0 1 22.687-3.89l3.023-.393c6.275-.774 12.407-1.134 18.727-.92"/><path fill="#ca6e4d" d="M469 467h2v2l2 1c-1.86 1.75-1.86 1.75-4.75 4-4.077 3.227-7.993 6.534-11.812 10.063C452 488 452 488 450 488v2a477 477 0 0 1-8 7l-3.375 3.438C436 503 436 503 434 503v2a342 342 0 0 1-5.492 4.79C416.164 520.67 416.164 520.67 414 525h-3c0-5 0-5 1-8l1-5h3l2-2 4-2 1-3 3 1 1-4c2.953-3.04 4.49-3.94 8.75-4.437L439 497l1-5h3l1-3h5c.39-1.99.719-3.992 1-6l4-2v-5c5-3 5-3 9.313-4.062L467 471v-2h2z"/><path fill="#d2947b" d="M203 746c1.656 3.311.32 6.388-.375 9.938l-.836 4.34C201 764 201 764 200 767l-1 5-3-1-1 4h-3a380 380 0 0 0-3 9h-2c-.871 4.356-1.631 8.575-2 13l2 1c-.964 4.118-1.405 5.603-5 8l-1-3v4h-2a282 282 0 0 0-3 9l-1.578 3.219c-1.729 4.596-1.786 8.32-1.734 13.218l.011 4.872L173 841h2c.625 3 .625 3 1 6-4.276-3.939-6.644-7.099-7.378-13.076-.195-9.259 1.762-16.05 5.565-24.424l1.625-3.74q1.698-3.903 3.43-7.793a941 941 0 0 0 5.168-11.92C200.438 748.562 200.438 748.562 203 746"/><path fill="#cd704d" d="m320 632 2 1h2c-1.9 4.748-3.857 7.67-6.937 11.688-5.361 7.18-10.06 14.626-14.653 22.316L300 671l-2.191 3.777L296 677c-2-4-2-4-2-6h2c1.063-2.812 1.063-2.812 2-6l1-3-1.437-2.875C296 656 296 656 296 651h2l1-3h2l-1-4h2v-2h2l2 4 1-2 1-1 1-4 3-3 3.625.625L319 637z"/><path fill="#d7a48e" d="m660 535 4 1h-3v3c-2.94.768-5.884 1.524-8.848 2.191-4.062 1.042-7.441 2.868-11.152 4.809a461 461 0 0 1-10.34 3.95C628 551 628 551 627 552c-3.12.355-6.247.658-9.375.938-20.523 1.96-20.523 1.96-22.625 4.062h-6v2c-7.063 2.065-14.061 2.383-21.367 2.563l-3.505.111c-4.917.157-9.834.293-14.752.43-3.602.104-7.204.218-10.806.333l-3.38.083c-7.851.254-7.851.254-11.19 2.48l-4-1c4.73-2.736 8.483-3.477 13.914-3.809l4.703-.317 5.008-.312C642.44 552.56 642.44 552.56 660 535"/><path fill="#cb7657" d="M309 437c-1.204 5.37-3.972 10.302-6.312 15.25-9.538 20.59-17.29 42.073-24.516 63.57L277 519h-1c-.755-7.547 1.17-15.024 4-22l3-1c.087-2.665.08-5.335 0-8l1-4-3.062-1-2.938-1 2-4 5-1-2-2c5-3 5-3 8-3a280 280 0 0 0 2-9c1.3-3.347 2.629-6.682 4-10a194 194 0 0 0 2-9l4-1 1-5c2-1 2-1 5-1"/><path fill="#cf927b" d="M275 519c1.34 4.019.3 5.853-1.027 9.86l-1.39 4.274-1.52 4.616c-6.09 18.911-11.148 37.983-15.747 57.305l-.805 3.339c-.709 2.95-1.4 5.905-2.09 8.86-1.297 4.331-2.493 7.32-5.421 10.746l-2-1c.813-3.062.813-3.062 2-6h1c.338-2.076.617-4.162.875-6.25 2.445-18.07 2.445-18.07 5.125-20.75l.438-4 .562-4 2-1c2.362-7.368 3.699-14.264 4-22h-2v-2h-2l-2-4 5-1 2-2 2-1a125 125 0 0 0 3.063-6.375l1.597-3.523C270 530 270 530 271 527h2v-7z"/><path fill="#cb8e76" d="M848 303c2.857 4.285 3.168 8.503 4.063 13.563l1.035 5.753c3.81 24.003 3.587 49.825-1.098 73.684l-.691 4.098c-1.532 8.605-3.861 16.854-7.309 24.902h-1c-.227-3.71-.083-6.71.95-10.293 1.043-3.682 1.6-7.157 2.05-10.953l.5-4.033q.505-4.2 1-8.399l.5-4.006.438-3.673L849 381h2v-8h2c.037-4.59-.057-9.106-.25-13.687l-.156-4.113c-1.207-29.038-1.207-29.038-3.594-36.2-.227-2.726-.41-5.456-.562-8.187l-.254-4.418z"/><path fill="#cd8063" d="M236 685c1.756 3.512.518 7.221 0 11l-1 3-1-1v6l5 1c-1.625 2.438-1.625 2.438-4 5l-1 2c-3.062-.875-3.062-.875-6-2l1 4-1 2h-3v-2c-2 1-2 1-4 6.063L219 725h-2v2h-2v7h-2l-1 4h-4v5l-4 3c4.05-16.203 15.141-32.962 24-47a309 309 0 0 0 3.188-5.812C234 688 234 688 236 685"/><path fill="#cc7150" d="M664 599c2.56 10.243-8.386 23.665-13.562 32.5l-1.605 2.748C644.075 642.217 638.799 649.614 632 656v-3h-3l-1 3-2-4c4.153-4.153 4.697-4.277 10-5v-2h3c1.53-8.941 1.53-8.941-1-14 4-4 4-4 7-6l1-3 3-3h5v-4h3q1.06-4.486 2-9h2v-2h2z"/><path fill="#d9a28b" d="m394 247 2 1c-6.859 8.544-6.859 8.544-13 11a221 221 0 0 0-3 7h-3l-1 3h-2c-3.344 3.198-6.526 6.534-9.738 9.863C361 282 361 282 356 285a249 249 0 0 0-4 6h-2l-2 5-2.812 3.188L343 302l3 2-1 4h-3l-2 4-5 1a240 240 0 0 0-9 6c2.625-5.25 6.305-9.48 10-14l2.07-2.605C345.8 292.74 354.238 283.72 363 275l3.059-3.164c6.976-7.146 14.108-13.608 22.078-19.629C391 250 391 250 394 247"/><path fill="#d08b70" d="M240 803c-1.904 2.736-3.936 5.383-6 8-2.728 3.897-5.36 7.856-8 11.813l-2.078 3.08c-3.312 4.958-6.43 9.919-9.238 15.181-3.792 6.96-8.105 10.603-15.684 12.926-4.064.28-7.914.184-12 0v-1c3.66-.705 7.327-1.368 11-2l5-1 2-5 5-2v-6c0-4 0-4 1-8l1 2 1-3h3a210 210 0 0 0 4-5h2l.938-3 1.062-3h3v-4h2l1-4h3q.51-2.999 1-6c3-1 3-1 6 0"/><path fill="#cf8266" d="M536 417h2l1 4c-3.39 2.742-3.39 2.742-8.25 5.875q-2.62 1.715-5.234 3.441l-2.748 1.81c-6.17 4.178-12.053 8.764-17.987 13.269C501 448 501 448 498 448l1-4 4-1v-2l4 1-1-3 1-2h2v-2h2v-2l-2-1h3v-4l-5-1 4-2 4-3h3l1-3 1 3h4v2h5l1-3 5 1z"/><path fill="#d4977f" d="M233 540h1a397 397 0 0 1-.437 10.688c-.33 6.568-.626 13.108-.5 19.687-.059 5.22-.62 9.619-2.063 14.625h-1c-.102 2.582-.13 5.166-.125 7.75l-.008 4.36C230 601 230 601 231 605h5l1-2 2 1c0 3.063 0 3.063-1 6h-6c-.625 4-.625 4 1 8 4.181.804 7.698.362 12 0-2 2-2 2-5.812 2.313C235 620 235 620 230 617c-5.701-7.602-4.053-17.104-3.312-26.187l.269-3.476C228.263 571.55 229.89 555.544 233 540"/><path fill="#cd7b5d" d="M631 656c0 5.028-3.682 7.51-7 11h-2l-2 4-4 4h-2v2h-2l-2 4a206 206 0 0 1-9.25 7.063l-2.566 1.892c-9.24 6.733-9.24 6.733-13.184 8.045l-1-4h3v-2l4-1v-2h2v-2h2v-2h6v-3h2l-2-3c1-3 1-3 4-7h3l1-2c5-2 5-2 8-1v-2h2v-2l5-1v-6c3.5-1.562 3.5-1.562 7-2"/><path fill="#d08466" d="M738 228c3.375-.25 3.375-.25 7 0l2 4h3a348 348 0 0 1-2 9h2l-1-3h3v-4h6c1.563 2.938 1.563 2.938 2 6l-3 1-1 3h2v3l4 2a141 141 0 0 1 5 7c-3.554-1.777-6-3.532-9.062-6-9.968-7.586-21.388-13.22-32.938-18 5.064-1.266 9.797-1.062 15-1z"/><path fill="#daa28b" d="M628.085 169.815c3.38-.002 6.761-.02 10.142-.04 18.347-.048 36.59.707 54.648 4.225l5.242 1c9.715 1.99 9.715 1.99 13.883 3v1c-8.382.176-8.382.176-12 0l-1-1a636 636 0 0 0-12.75-1.5q-3.555-.388-7.11-.781l-3.202-.346c-2.664-.338-5.305-.846-7.938-1.373v1c-2.918-.043-5.835-.16-8.75-.305l-5.469-.27c-1.908-.098-3.815-.198-5.781-.3l-5.781-.277-5.469-.278-5.078-.257L628 173v-1a224 224 0 0 0-8.094-.063l-5.058.024-5.348.039q-5.203.038-10.406.062l-4.698.036L591 172v-1c12.347-1.151 24.696-1.186 37.085-1.185"/><path fill="#cf896e" d="M814 239c6.406 4.484 9.896 10.513 14 17l1.902 2.723c5.119 7.609 8.578 15.76 12.035 24.214l1.47 3.594c2.07 5.187 3.828 9.913 4.593 15.469-3-2-3-2-4.375-5.312C842 293 842 293 839.438 290.758c-3.196-3.615-3.035-5.814-3.063-10.57-.04-4.083-.04-4.083-.375-7.188h-3l-2-4-1 3h-2l.125-4-.125-4h-4v-2h-2v-4h-2v-2l2-1-2-5v-3l-4-2-2-2z"/><path fill="#cc6e4b" d="M613 365c1.724 4.568.964 7.182 0 12-4 1-4 1-7 0v2c-4.128 1.376-7.683 1.313-12 1v-4h2c0-5 0-5-1-9 6.496-4.872 10.194-4.178 18-2"/><path fill="#cf8164" d="M318 568v3l-2 2c-1.25 4.125-1.25 4.125-2 8h2v2h-2l-1 4-1-2-5 2 2 4-3.375 2.25L302 596c-.312 4.313-.312 4.313 0 8h-2v2l-3 1-1 2-4 1v-6l-3 2c1.926-3.853 4.216-6.947 6.879-10.312 2.383-3.02 4.72-6.071 7.058-9.125C314.576 571.425 314.576 571.425 318 568"/><path fill="#daa893" d="M807 327h1c2.024 10.402 2.31 20.813 2.25 31.375l.023 4.191c-.013 7.167-.62 13.438-2.273 20.434-.09 5.036.063 10.029.223 15.063L808 402l-3 1v4h-2l-1 4.5-1 4.5h-2l1 4-2 3-.812 3.063L796 429l-5 2c-1.75 4.5-1.75 4.5-3 9l-1 2h-2c1.085-4.082 2.7-7.383 4.625-11.187 16.348-32.376 19.863-64.471 17.496-100.36z"/><path fill="#d29780" d="m410 296-2.52 2.488a7461 7461 0 0 0-11.418 11.325l-3.962 3.912c-7.155 7.118-13.93 14.287-20.1 22.275l-3.18 4.031-5.437 7C361 350 361 350 358 353q.376-4.016 1-8h2l1-4 1-2h2l1-3 2 2 .938-3.375L370 331h3v-2h2v-4h2v-2h2v-2h2v-3h2l-1-4c3.375-1.875 3.375-1.875 7-3l1 2c2.215-1.781 2.215-1.781 4.938-4.5l2.714-2.656C400 303 400 303 401.066 299.78c1.655-4.93 4.283-4.944 8.934-3.781"/><path fill="#ce7a5a" d="M283 746h5v2c3.327.394 6.662.722 10 1l4 1-3.113 1.871c-7.728 4.723-14.962 9.503-21.75 15.512C275 769 275 769 272 769c.95-2.354 1.958-4.685 3-7v-4a749 749 0 0 1 6-4c2-5 2-5 2-8"/><path fill="#d2937b" d="m727 501 2 1a141 141 0 0 1-5 5l-1 2h-5v2l-5 2v3h-2c-.73 1.977-1.394 3.98-2 6l-1 2h-3l-2-3c-7.535 2.07-15.334 4.334-21 10-4 2-4 2-9 2v2q-4.5.124-9 0c3.576-2.384 7.242-3.913 11.188-5.625 17.294-7.634 34.024-16.07 49.484-27.004z"/><path fill="#cc8266" d="m329 730 1 3c2.346-.62 4.677-1.297 7-2q4.215-.232 8.438-.187l4.308.019L353 731v1c-2.556.552-5.12 1.064-7.687 1.563a147.4 147.4 0 0 0-36.813 13.253L304 749l-2-1 1-3h2v-2l5-1 3-1v-2l4-1 1-3c3-2 3-2 7-2v-2z"/><path fill="#d39d87" d="M621.316 593.52c3.059-.332 3.059-.332 7.684.48-.207 6.343-1.185 10.37-4 16l-1 4-5 1-4 2v2l-4 2a141 141 0 0 0-5 5c2.551-5.102 5.613-9.403 9-14h2l2-4q2.04-3.39 4.125-6.75l2.195-3.547L627 595l-4.637 1.094-6.05 1.406-3.053.723C608.705 599.275 604.695 600 600 600l1-3h5v-2c2.856-.336 5.718-.647 8.59-.8 3.41-.2 3.41-.2 6.726-.68"/><path fill="#cf8366" d="M291 677h4c-1.678 4.194-3.422 7.466-5.812 11.25-2.485 3.971-4.893 7.944-7.125 12.063L280 704h-1c-.033-3.357.07-6.703.16-10.059L279 691l-2-1-2-4c2.125-2.75 2.125-2.75 5-5h4c3.188-.875 3.188-.875 6-2z"/><path fill="#d08b71" d="M327 396h3c-1.163 6.007-4.787 11.282-7.75 16.563-4.44 8.012-8.564 16.042-12.25 24.437-1.241-3.723-.79-6.194 0-10h2l1-4 1.188-4.437C315 414 315 414 313 409v-3q4.475-1.575 9-3l1-2h2v-2h2z"/><path fill="#d28a6e" d="m605 626 2 1v5l-4 2 4 1 1 3h-2v4h-4v2q-3.499.509-7 1l-1 2v-2l-2-1 3-1 2-5h-1l-2.437 3.188c-4.129 4.418-8.079 6.351-13.563 8.812l-4 2c3.434-5.077 7.95-7.634 13-11 4.748-3.97 9.202-8.173 13.5-12.625z"/><path fill="#cd866c" d="M469 467h2v2l2 1c-1.86 1.75-1.86 1.75-4.75 4-4.077 3.227-7.993 6.534-11.812 10.063C452 488 452 488 450 488v2a477 477 0 0 1-8 7l-3.375 3.5L436 503l-2-1 1-5h4l1-5h3l1-3h5c.39-1.99.719-3.992 1-6l4-2v-5c5-3 5-3 9.313-4.062L467 471v-2h2z"/><path fill="#d5a18c" d="m574 652 2 1c-2.187 2.563-2.187 2.563-5 5h-3l-1 3-4 1v3a330 330 0 0 1-9 1v2l-5 1v2c-3.077 1.46-6.215 2.792-9.375 4.063l-5.273 2.16c-7.443 2.471-14.556 2.946-22.352 2.777 4.232-2.116 8.186-3.193 12.75-4.437 8.247-2.44 15.994-5.421 23.813-9l2.95-1.34c7.97-3.738 15.164-8.341 22.487-13.223"/><path fill="#cb8266" d="M439 218c-1 4-1 4-2 6h2v2h-5a134 134 0 0 0-6 3h-2v5h-2v-2c-3.937 1.25-3.937 1.25-8 3l-1 2c-2.964 1.61-5.799 2.933-9 4v2c-3.312 2.688-3.312 2.688-7 5l-3-1c6.712-8.125 31.802-29 43-29"/><path fill="#d3967e" d="M769 463v3l-3 3-1 5c-1 3-1 3-3 7l-3-1-2 2-2-1-1 3c-2.762 2.334-5.638 4.479-8.531 6.648C743 493 743 493 742 498c-2.75 1.125-2.75 1.125-6 2l-5 3v-2l-2-1c2.503-2.12 5.02-4.226 7.586-6.27C748.315 484.35 759.39 474.582 769 463"/><path fill="#d2977f" d="M759 196c12.047 2.532 30.161 14.741 37 25h-5v-2l-5-1-1 3-.562-3.437L783 214c-3.625-.812-3.625-.812-7-1v-2l-3.062-.375L770 210l1-4-3-1v-2l-3-.5-3-.5v-2l-3-1z"/><path fill="#d29982" d="M309 437c-1.256 5.703-4.23 10.976-6.687 16.25-4.506 9.771-8.553 19.665-12.313 29.75-1.17-3.512-1.205-6.318-1-10l2-1 .875-3.937c1.184-5.328 3.044-10.028 5.125-15.063a194 194 0 0 0 2-9l4-1 1-5c2-1 2-1 5-1"/><path fill="#ce8367" d="M483 447c3 1 3 1 4 3l4 1v-2c3.5-.125 3.5-.125 7 0-3.561 3.707-7.284 6.89-11.375 10l-3.441 2.617A377 377 0 0 1 473 469v-3l-2-1h4v-3h4l2-4-2.625-2.5L476 453l4-4h3z"/><path fill="#deb29e" d="m523 184-4 1v2a502 502 0 0 1-7.89 1.367c-4.648.946-8.81 2.667-13.11 4.633l-1 2a93 93 0 0 1-5.875 2c-3.509 1.082-6.054 1.953-9.125 4h-4v2c-2.633.816-2.633.816-6.125 1.563l-3.445.753c-3.136.625-6.273 1.18-9.43 1.684 11.258-8.444 26.642-12.722 39.813-17.437l3.591-1.288c16.24-5.727 16.24-5.727 20.596-4.275"/><path fill="#d39f8a" d="M461 255h6c-2.948 2.948-5.296 4.36-8.937 6.313-8.306 4.646-15.955 10.094-23.692 15.613C430 280 430 280 425 283v-5l4-1-1-4 4-4h2v2a194 194 0 0 0 9-2v-3h3v-2h3v-3l4 1v-2h4v-2h4z"/><path fill="#d49c85" d="M699 567c3.5-.125 3.5-.125 7 0-9.463 6.309-24.456 15-36 15q-.508 4-1 8c-.909 3.029-1.89 6.04-3 9h-1a172 172 0 0 1-.25-8.062l-.078-4.536L665 583l3 1v-4c3.833-3.833 6.745-3.95 12-5 3.5-1 3.5-1 6-2l1-2h6v-2h6z"/><path fill="#d18263" d="M796 221c4.716 2.358 7.58 5.28 11.313 9l3.863 3.813L814 237l-1 2c-4.615-3.23-4.615-3.23-6-6-3.5-.812-3.5-.812-7-1l-1 3-3 3 3.063-.687L802 237l-1 3h-2l-1 5-4 1v-2h2v-2h-4c0-2 0-2 1-3l-1-3 4-2-1-4 2-2h3v-2l-3-1v-2z"/><path fill="#d6a089" d="M266 637c0 3 0 3-2 6.938-2 4.062-2 4.062-2 8.062h-3l.063 4.063L259 660l-4-1-2 4-3 5-1 5h-2v3l-2 1v2l-5 2-1 4h-2c1.23-6.274 5.253-11.424 8.688-16.687l1.818-2.819q1.82-2.82 3.647-5.639a1223 1223 0 0 0 11.722-18.48C265 638 265 638 266 637"/><path fill="#d29c86" d="M589 557v2c-7.063 2.065-14.061 2.383-21.367 2.563l-3.505.111c-4.917.157-9.834.293-14.752.43-3.602.104-7.204.218-10.806.333l-3.38.083c-7.851.254-7.851.254-11.19 2.48l-4-1c5.714-3.658 11.755-3.755 18.336-4.168l3.616-.256c3.807-.267 7.615-.515 11.423-.764q3.833-.265 7.664-.537c22.615-1.563 22.615-1.563 27.961-1.275"/><path fill="#c76f50" d="m535 678 1 3c-2.312 2.313-2.312 2.313-5 4l-2-2 1-1c-5.722-1.506-10.288-.22-16 1q-5.124 1.067-10.25 2.125l-5.14 1.07C494 687 494 687 488 687l1-2c3.063-.625 3.063-.625 6-1l-5 .063-5-.063v-1c3.388-.551 6.786-1.04 10.188-1.5 5.31-.724 10.555-1.449 15.812-2.5q4.494.047 8.988.102c5.533-.187 9.553-2.467 15.012-1.102"/><path fill="#d29178" d="M274 406c1.579 6.316.395 11.013-2 17l3-1 1 5-5 1c-5 3.75-5.73 7.286-8 13l-3 1c.247-4.787 2.03-8.806 3.941-13.148l1.768-4.043 1.853-4.184 1.866-4.254q2.277-5.19 4.572-10.371"/><path fill="#d0937a" d="M269 767h2l1 4c-2.36 2.629-2.36 2.629-5.75 5.563-9.26 8.22-17.886 16.455-25.25 26.437-1-4-1-4-1-6h4v-5l4-1v-4h3l1-3c1.875-2.687 1.875-2.687 4-5h3v-2h2v-2h2v-2h2v-2l3 1z"/><path fill="#dfb39f" d="m624.16 214.867 4.322-.003q4.494 0 8.988.006 6.913.005 13.825-.007 4.37 0 8.74.004l4.198-.006c9.652.024 9.652.024 10.767 1.139l5.625.375L686 217l-1 3a165 165 0 0 1-12-1c-16.912-1.642-33.516-2.233-50.5-2.063q-5.107.043-10.216.072c-3.025.017-6.05.045-9.075.073L599 217v-1c8.387-1.147 16.715-1.145 25.16-1.133"/><path fill="#d29c85" d="M600 600v1a476 476 0 0 1-13.062 1.938l-3.995.54c-18.584 2.456-37.17 4.355-55.943 3.522v-1c2.413-.216 4.831-.371 7.25-.5 4.13-.221 7.731-.495 11.75-1.5 5.674-.557 11.354-1.024 17.035-1.5C568 602 568 602 571 601c9.635-.793 19.333-1.276 29-1"/><path fill="#dca994" d="m490 724 1 2 2-1c2.665-.08 5.335-.086 8 0v1l4 .5 4 .5v1c-24.322 3.36-48.487 4.729-73 3v-1a265 265 0 0 1 8.688-.21l5.496-.087q5.769-.078 11.539-.133l5.527-.093 5.078-.06c4.752-.424 8.267-1.668 12.672-3.417h5z"/><path fill="#d19076" d="M840 425h3c-1.098 5.491-3.097 10.271-5.312 15.375l-1.186 2.79c-2.215 5.141-4.615 10.038-7.502 14.835-1.559-3.118-.677-5.678 0-9h2l-1.062-4.25L829 440c3-4 3-4 6-5l2.5-5.062z"/><path fill="#d4957d" d="M723 182c6.252.437 11.627 2.564 17.438 4.813l5.433 2.082A159 159 0 0 1 759 195c-4 2-4 2-7.312 1.25L748 195c-4.398-1.365-7.325-2-12-2l-3-3v-2h-3l-1-3a101 101 0 0 0-6-2z"/><path fill="#ce866b" d="M791 431c1.465 4.394-.207 6.838-2 11l-3 4 1 4h3v4h-3l-1 4-.812-3-1.188-3h-3v3l-3 1a283 283 0 0 0-5 5l-3 2c2.02-4.04 4.355-7.406 7-11.062 4.899-6.786 4.899-6.786 7-9.938h3a142 142 0 0 0 3-9z"/><path fill="#e0b8a4" d="M359 727c6.27-.23 12.544-.186 18.817-.185 3.152-.002 6.303-.02 9.454-.04 13.975-.038 27.85.46 41.729 2.225v1a330 330 0 0 1-9.727-.191l-6.261-.174q-4.922-.142-9.845-.304c-13.386-.434-26.324-.234-39.66 1.216C359 731 359 731 353 731v-1l6-2z"/><path fill="#d29c86" d="M571 701h6v3c-9.607 5.92-20.45 10.074-31 14l-3.465 1.293c-8 2.841-8 2.841-12.535 1.707 3.657-3.657 7.841-3.984 12.875-4.5L547 716v-2c3.964-1.982 6.53-3 11-3v-2l3.5-.437L565 708v-3l6-1z"/><path fill="#d5957c" d="M702 216h2l1 4h7c4 4 4 4 5 6l3 .375 3 .625 1 4-3.812-1.187c-10.327-3.094-20.78-6.053-31.375-8.063L685 221v-1c4.861-.275 9.254.173 14 1.125l5 .875v-2h-6z"/><path fill="#d49c85" d="M253 459h1c-.06 11.767-.893 24.644-7 35l-2 4-3 3c1.349-8.114 3.231-15.91 5.5-23.812l.934-3.311C251.405 463.4 251.405 463.4 253 459"/><path fill="#cf8f77" d="M509 237q-6.311 2.691-12.625 5.375l-3.605 1.54-3.497 1.483-3.205 1.365c-6.347 2.559-6.347 2.559-9.068 3.237v-3h2l.438-2.875L480 241c3-2 3-2 8-2l1 1c8.69-1.69 8.69-1.69 10-3 6.429-1.19 6.429-1.19 10 0"/><path fill="#cf8368" d="m397 537 2 4c-1.816 2.402-1.816 2.402-4.562 4.938l-2.692 2.527L389 551a741 741 0 0 0-5 5l-1-5h2l-1.062-3-.938-3h3v-3l4-2c4-3 4-3 7-3"/><path fill="#d1947d" d="M378 557h5v2h-2l-2 4a257 257 0 0 1-5.5 6.438c-5.177 5.938-9.982 12.051-14.637 18.406L357 590c-1-2-1-2 0-6h2v-2h2v-5h4v-4h2l.438-3 .562-3h3v-2l3 1 1-5h2z"/><path fill="#cf876b" d="m320 632 2 1h2c-1.995 4.986-4.308 8.399-7.5 12.688l-2.969 4.011C311 653 311 653 309 655c-.25-3.375-.25-3.375 0-7l4-2v-3l-3 1v-2h-2c2-4 2-4 6-6l5 1z"/><path fill="#cf866a" d="M275 519c1.554 4.662-.344 8.077-1.812 12.688l-1.645 5.261L270 541h-2v2h-2v6h-2v2c-3 1-3 1-7 0l-2-4 5-1 2-2 2-1a125 125 0 0 0 3.063-6.375l1.597-3.523C270 530 270 530 271 527h2v-7z"/><path fill="#d39e88" d="M176 806h1c.5 4.603-.03 7.065-2 11.313-3.239 7.385-2.74 15.788-2 23.687h2c.625 3 .625 3 1 6-4.244-3.909-6.56-7.057-7.441-12.953C168.175 823.6 171.32 815.269 176 806"/><path fill="#cf9179" d="M570 401c-3.86 3.255-7.898 5.823-12.25 8.375-4.454 2.63-8.817 5.295-13.062 8.25L541 420l-2-1v-3l3-1 1-2c3-2 3-2 6-2v-2h6v-6c5.012-1.934 9.669-2.222 15-2"/><path fill="#d5a08a" d="M664 599c2.9 11.602-11.342 28.776-17.34 38.785L644 642h-1v-5h2v-4h2v-4h2v-4h2v-4h2l.438-3 .562-3h3q1.06-4.486 2-9h2v-2h2z"/><path fill="#d8a994" d="M590 172v1l-4.5-.062-4.5.062v2c-3.274.621-6.572 1.12-9.875 1.563-9.951 1.35-9.951 1.35-12.125 2.437-3.712.26-7.408.467-11.125.625l-3.152.156c-2.573.115-5.148.172-7.723.219v-1c16.914-4.428 35.497-7.574 53-7"/><path fill="#d29c86" d="M546.563 223.938 551 224c-5.334 2.667-10.944 3.942-16.687 5.438-6.225 1.626-12.376 3.237-18.458 5.347C512 236 512 236 509 235c3-4 3-4 6.188-4.625L518 230v-2c3.658-.15 7.279.009 10.938.125L532 228v-2q4.493-.569 9-1c1-1 1-1 5.563-1.062"/><path fill="#d2967e" d="M834 267c3.983 3.983 5.476 10.093 7.563 15.25l1.537 3.723 1.466 3.605 1.342 3.294c1.067 3.055 1.663 5.927 2.092 9.128-3-2-3-2-4.375-5.312C842 293 842 293 839.438 290.758c-3.196-3.615-3.035-5.814-3.063-10.57-.04-4.083-.04-4.083-.375-7.188h-3c.313-3 .313-3 1-6"/><path fill="#d9aa96" d="M658 171c17.927-.885 36.746 2.218 54 7v1c-8.382.176-8.382.176-12 0l-1-1a848 848 0 0 0-16.455-1.807l-3.502-.377-3.218-.33C673 175 673 175 669 173q-5.495-.539-11-1z"/><path fill="#bd7257" d="m634.188 170.875 4.158-.014c3.218.005 6.437.066 9.654.139v1a353 353 0 0 1-10.848.79l-3.39.204q-3.577.213-7.155.418c-3.602.21-7.203.433-10.804.658-11.705.7-23.112 1.233-34.803-.07v-1c7.016-.989 14.052-1.308 21.125-1.562l3.478-.127c9.528-.313 19.052-.418 28.585-.436"/><path fill="#be785c" d="M406 727c3.406-.14 6.78-.19 10.188-.187h3.349c12.206.077 24.395.594 36.588 1.125l3.122.131q4.411.19 8.823.396l5.212.238L477 729v1c-6.412.23-12.829.186-19.244.185-3.224.002-6.448.02-9.672.04-14.093.038-28.088-.437-42.084-2.225z"/><path fill="#d09178" d="M342 369h4c0 4.461-2.54 7.173-4.914 10.793-2.938 4.517-5.702 9.136-8.484 13.75L331 396h-1c-.241-6.517-.241-6.517 1-9l-2-1 1-3 5 1v-3h2v-4h2v-2h2l.375-3z"/><path fill="#d08468" d="M310 698v3h-2v2l-4 1-1 3-4-3v2h-5l-1 1q-5.495.556-11 1c3.04-4.559 6.904-5.243 12-7a227 227 0 0 1 9-1c5-2 5-2 7-2"/><path fill="#cf937b" d="M240 803c-1.901 2.738-3.93 5.387-6 8a1427 1427 0 0 0-8.584 12.637A420 420 0 0 1 221 830h-1c-.187-3.5-.187-3.5 0-7h2l.938-3 1.062-3h3v-4h2l1-4h3q.51-2.999 1-6c3-1 3-1 6 0"/><path fill="#d5a28b" d="M479 422c-1 4-1 4-3.875 5.75C472 429 472 429 469 429l-2 5a150 150 0 0 1-6 1l-2 4-5 2-1 3h-2v2c-2.32.414-4.656.749-7 1 4.287-4.61 9.178-8.25 14.25-11.937l2.45-1.803C476.08 422 476.08 422 479 422"/><path fill="#cf866b" d="M329 610h2v4l3.125.5 2.875.5c-2.052 4.103-4.42 7.627-7.062 11.375l-2.723 3.898L325 633c-1.99-3.98.11-8.86 1-13a856 856 0 0 1 3-7l-2-1z"/><path fill="#d39980" d="m309 342 2 4c-1.25 3.75-1.25 3.75-3 7h-2l-1 3-1 3h-2v3h-2l-1.437 3-1.563 3h-3c2.96-7.4 6.952-14.08 11.188-20.812l2.042-3.27z"/><path fill="#d8a893" d="m577.223 216.867 3.818-.004 4.021.012 4.034-.012 7.35.008L599 217v1c-3.978.507-7.95.957-11.938 1.375-9.337 1.017-18.545 2.27-27.769 4.074C556 224 556 224 551 224l3-1v-2h8v-2q3.991-.569 8-1c1.835-1.835 4.763-1.13 7.223-1.133"/><path fill="#cd8b73" d="m358 684 2 3c-2.657.401-5.328.715-8 1l-4.125 1.563c-6.38 1.88-12.274 1.69-18.875 1.437 4-2 4-2 6-2v-2c7.286-2.068 15.432-3.89 23-3"/><path fill="#e8c3b3" d="M848 303c2.857 4.285 3.168 8.503 4.063 13.563l1.035 5.753c1.85 11.661 2.054 23.025 2.027 34.809l.012 5.21-.004 4.923-.004 4.504L855 375h-1a161 161 0 0 1-.246-6.84l-.096-4.39-.096-4.707c-.76-30.558-.76-30.558-4.562-40.063a152 152 0 0 1-.625-8.312l-.227-4.364z"/><path fill="#cb8f77" d="m394 247 2 1c-6.859 8.544-6.859 8.544-13 11a221 221 0 0 0-3 7h-3l-1 3h-2c-3.437 3.333-6.722 6.795-10.031 10.254L361 282l-2-1c1.938-2.129 1.938-2.129 5-5q3.502-3.466 7-6.937l3.625-3.59C378 262 378 262 380.609 258.828c2.36-2.792 4.752-4.913 7.641-7.14l2.64-2.051L393 248z"/><path fill="#d9aa96" d="M767 256c4 2 4 2 7 5l3 1v2h2v2l3 1v3h2v2h2l.938 2.938L788 278l3 1v4l2 1c.625 3.063.625 3.063 1 6-2.994-2.994-4.758-5.763-6.937-9.375-4.202-6.65-9.008-12.232-14.461-17.883C770 260 770 260 767 256"/><path fill="#d09075" d="M287 753h3v2l2 1c-2.469 2.07-5.031 4.027-7.625 5.938l-4.414 3.277C276 768 276 768 272 770l1.5-3.75C275 762 275 762 275 758l3-1 2 2h2l1-2h2v-2h2z"/><path fill="#d59e88" d="M268 541c1.705 5.116-.831 10.16-2.312 15.188q-.964 3.333-1.926 6.667l-.928 3.19c-.725 2.57-1.37 5.161-2.002 7.756L260 577h-1c-.378-7.176.633-13.974 1.758-21.035L261 553h-2v-2h5v-2h2v-6h2z"/><path fill="#cf8d73" d="M459 207c-.314 4.61-1.123 6.164-4 10l-2 1v-3l-3 1v3h-2v-2q-4.513.376-9 1c3.306-3.306 6.436-5.007 10.563-7.187l4.066-2.168C457 207 457 207 459 207"/><path fill="#cf937b" d="M350 591h5c-1.952 3.905-4.126 6.885-6.812 10.313-2.827 3.627-5.587 7.249-8.25 11L338 615h-1c0-6.747 1.224-9.224 6-14h2l1-4h3l.375-3z"/><path fill="#d29983" d="M458 482a204 204 0 0 1-6 6h-2v2a477 477 0 0 1-8 7l-3.375 3.5L436 503l-2-1 1-5h4l1-5h3l1-3h5c.39-1.99.719-3.992 1-6 4-2 4-2 8-1"/><path fill="#dcad98" d="m518 565 2 1c-2.349 4.161-4.615 7.615-8 11-.363 3.793-.363 3.793-.312 8.188l.011 4.417L512 593h2v3l3-1c1.058 2.644 2.1 5.298 3 8-5.4-2.7-7.056-5.766-10-11-1.365-6.826-1.262-12.403 1-19 3.5-4.625 3.5-4.625 7-8"/><path fill="#d7a692" d="m699 519-1 4a162 162 0 0 1-9 3c-5 3-5 3-7 5-4 2-4 2-9 2v2q-4.5.124-9 0c3.648-2.432 7.416-3.999 11.438-5.75 5.594-2.458 11.12-4.972 16.562-7.75 5-2.5 5-2.5 7-2.5"/><path fill="#d6a691" d="M612 361c3.313 2.5 3.313 2.5 5 6 0 4.25 0 4.25-1 8l-3 2 .688-5.937c0-3.32 0-3.32-.688-6.063-4.353-1.187-6.647-1.364-11-1l-3.18.203c-2.612.204-5.217.493-7.82.797 5.351-5.351 14.024-4.594 21-4"/><path fill="#cc8265" d="M184 791h1v6l2 1c-.964 4.118-1.405 5.603-5 8l-1-3v4h-2l-1 3h-1c.468-7.613 1.507-13.507 7-19"/><path fill="#cc8d75" d="M431 501h2l1 4c-1.773 1.67-3.568 3.322-5.457 4.86-2.983 2.51-5.722 5.198-8.48 7.952l-2.84 2.833C415 523 415 523 414 525l-2-1 1-4h2v-3h2v-2h3v-2h3v-4h2v-2h2v-2h2v-2h2z"/><path fill="#d29b85" d="M286 488c1.316 3.948.348 5.532-1.055 9.418l-1.363 3.799-1.457 3.97-1.434 4.006c-2.59 7.153-2.59 7.153-3.691 9.807h-1c-.755-7.547 1.17-15.024 4-22l3-1q.562-3.491 1-7z"/><path fill="#d3a28b" d="m424 226 2 1-1 3h-5l-1 3h-3l-1 4c-2.949 1.73-5.76 2.92-9 4v2c-3.312 2.688-3.312 2.688-7 5l-3-1c3.875-4.757 9.047-8.081 14-11.625l4.75-3.414A162 162 0 0 1 424 226"/><path fill="#d49a83" d="M631 656c0 5.028-3.682 7.51-7 11h-2l-2 4-4 4h-2v2l-2-1c.125-4.125.125-4.125 1-8l4 1v-2h2v-2l5-1v-6c3.5-1.562 3.5-1.562 7-2"/><path fill="#d29b85" d="M606 377c3.5-.125 3.5-.125 7 0-3.477 3.477-6.883 5.181-11.25 7.438-4.288 2.223-8.527 4.429-12.672 6.91L586 393l-2-1 1-3h2v-2l4 1v-2h4v-3h4v-2h4v-2h3z"/><path fill="#d28f76" d="M508 404v4h-2l-1 4v-2l-2 1 1 3h-4v2h-2v-2l-4-1v2c-3 .625-3 .625-6 1 3.67-3.67 6.659-5.733 11.125-8.25l3.758-2.14C506 404 506 404 508 404"/><path fill="#d9aa94" d="M288 606v7l-4 4-1 4h-3l-2 5a141 141 0 0 1-5 5 376 376 0 0 0-5 6c0-4.462 2.386-6.484 5.063-10 3.51-4.681 6.898-9.351 10-14.312C286 608 286 608 288 606"/><path fill="#c87153" d="m623.563 590.875 3.503-.008C630 591 630 591 632 592c-.125 3.875-.125 3.875-1 8l-4 3 1.09-3.977L628 595c-4.059-.71-4.059-.71-9.437-.375-3.186.171-6.374.31-9.563.375v-2l4 1 1-2c3.378-1.126 6.008-1.133 9.563-1.125"/><path fill="#d9a690" d="m220 713 1 2a735 735 0 0 1-3.793 8.09c-1.49 3.594-1.843 7.056-2.207 10.91h-2l-1 4h-4v5l-4 3c2.896-11.585 10.28-22.563 16-33"/><path fill="#cc866a" d="M309 437c-1.124 4.997-3.421 9.601-6 14h-4q-.062 3.5 0 7l-3 1c.188-4.875.188-4.875 1-10l2-1 1-4 3-1 1-5c2-1 2-1 5-1"/><path fill="#ce8e74" d="M601 682h2l1 3c-2.535 2.375-2.535 2.375-6.062 5l-3.473 2.625c-6.081 4.168-6.081 4.168-9.465 5.375l-1-4h3v-2l4-1v-2h2v-2h2v-2h6z"/><path fill="#cf9279" d="M306 653h2c1 4 1 4-1.746 8.766a487 487 0 0 1-3.692 5.484l-1.892 2.836A1053 1053 0 0 1 296 677c-2-4-2-4-2-6h2a253 253 0 0 0 2-6l2-2 2-4 1-2h2z"/><path fill="#d39c84" d="m339 544 1 3c-3 3-3 3-5 4a253 253 0 0 0-2 6c-2 3-2 3-6 5l-2 3a100 100 0 0 1-6 3c1.828-3.657 3.454-5.795 6.188-8.75a559 559 0 0 0 8.75-9.75c1.64-1.875 3.3-3.738 5.062-5.5"/><path fill="#cd7e62" d="m349 359 4 1c-4.333 8.667-4.333 8.667-9 11v-2h-2l-.5 3-.5 3h-2v-2h-2v-2h2l1-5h3l-1-2 4-1 1-2h2z"/><path fill="#cd8568" d="M774 209h5v2l3.438.125c6.419 1.231 8.944 4.329 13.562 8.875l-4 1-1-2-5-1-1 3-.562-3.437L783 214c-3.625-.812-3.625-.812-7-1v-2z"/><path fill="#d39176" d="M318 568v3l-2 2c-1.25 4.125-1.25 4.125-2 8h2v2h-2l-1 4-1-2-5 1-1-4c2.273-3.2 2.273-3.2 5.375-6.687l3.086-3.512C317 569 317 569 318 568"/><path fill="#ce866a" d="m640 641 2 4c-1.773 2.797-1.773 2.797-4.375 5.75l-2.586 2.984L633 656l-1-3h-3l-1 3-2-4c4.153-4.153 4.697-4.277 10-5v-2h3z"/><path fill="#d59177" d="m627 606-2 4-1 4-5 1-4 2v2l-4 2a141 141 0 0 0-5 5c4.002-8.004 7.755-14.195 16-18 3-2 3-2 5-2"/><path fill="#cf957e" d="M699 567c3.5-.125 3.5-.125 7 0-9.576 6.384-18.562 9.856-30 11 3.599-2.7 5.874-3.625 10-5l1-2h6v-2h6z"/><path fill="#d8a993" d="m293 368 1 2a151 151 0 0 1-3.312 7.75c-3.543 7.79-3.543 7.79-4.793 11.766L285 392h-2l-1 5h-2v2h-2c1.11-4.18 2.85-7.947 4.785-11.8l1.608-3.21 1.67-3.303 1.681-3.36c4.116-8.187 4.116-8.187 5.256-9.327"/><path fill="#ce876d" d="M432 269h2v2l3 1c-1 4-1 4-3.504 5.922l-3.058 1.828-3.067 1.86L425 283v-5l4-1-1-4z"/><path fill="#d09780" d="M487 198c-5 3-5 3-9 3v2c-2.633.816-2.633.816-6.125 1.563l-3.445.753c-3.136.625-6.273 1.18-9.43 1.684 3.453-2.59 6.437-4.313 10.313-6.125l3.3-1.57c5.163-1.99 8.998-2.652 14.387-1.305"/><path fill="#d07d5e" d="M580 686h4l1 4 2 1v3l-2 1-1 5-3 2-3-1 2-1-1-3h2c-.791-2.8-1.698-5.396-3-8l2-1z"/><path fill="#cf8c73" d="m408 523 4 2c-1.998 3.996-3.91 6.148-7.062 9.25l-2.723 2.703C400 539 400 539 399 539v-5l3-3 1-4 5-1z"/><path fill="#dfb19d" d="m394 487 2 1c-1.922 2.145-1.922 2.145-4.75 4.813-3.272 3.093-5.214 5.115-7.25 9.187l-4 1-.937 2.938L378 509l-5 2-4 2c3.944-5.709 8.194-10.167 13.395-14.676 2.664-2.376 5.13-4.878 7.605-7.449z"/><path fill="#cd7c5d" d="m360 335 3 1-1 2h-3v2l4 1-2 4h-2l-.312 4.688C358 355 358 355 355.438 358.125L353 360q.383-4.513 1-9l2-1 1-3-2-1h3l-.5-4.375L357 337z"/><path fill="#da9d85" d="m510 679 1 2-3 1 1 2c-2.973.852-2.973.852-7.062 1.625-1.332.26-2.664.52-4.036.79C494 687 494 687 488 687l1-2c3.063-.625 3.063-.625 6-1l-5 .063-5-.063v-1c3.409-.55 6.828-1.039 10.25-1.5 10.371-1.405 10.371-1.405 14.75-2.5"/><path fill="#d7a089" d="m368 513 1 4-4 4h-2l-1 5a159 159 0 0 1-7 3c-2.389 1.934-4.737 3.921-7 6 2.701-5.402 6.862-9.072 11.125-13.25l2.574-2.547q3.145-3.107 6.301-6.203"/><path fill="#d6a48f" d="m345.188 730.875 4.417-.008L353 731v1a319 319 0 0 1-8.312 1.813c-5.547 1.187-10.836 2.446-16.125 4.5C324 740 324 740 321 739l1-2h7v-2h5v-3c3.832-1.277 7.15-1.132 11.188-1.125"/><path fill="#c87f62" d="M520 603c2.915-.103 5.833-.13 8.75-.133l5.469-.004 5.781.012 5.781-.012 5.469.004 5.078.004L560 603v1a174 174 0 0 1-6.75.5c-3.962.228-7.39.535-11.25 1.5-2.998.12-6 .175-9 .188l-4.812.042C524 606 524 606 520 604z"/><path fill="#d09176" d="M425 283c-4.125 4.254-8.416 8.242-13 12l-2-1 1-5h3l-1-5 5 1v-2c2-1 2-1 7 0"/><path fill="#e0b8a6" d="m558.75 603.875 3.559-.012c2.897.004 5.794.065 8.691.137v1c-14.577 1.817-29.316 2.652-44 2v-1c2.413-.216 4.831-.371 7.25-.5 8.273-.444 16.161-1.653 24.5-1.625"/><path fill="#d5a48e" d="m434 453 2 1c-6.383 7.95-13.232 13.74-22 19l-2-1c1.86-2.004 1.86-2.004 4.75-4.562l3.07-2.72c4.31-3.685 8.72-7.214 13.18-10.718z"/><path fill="#cc8468" d="M356 527c0 3.386-.915 5.813-2 9v2l2 1h-2v2l-2-1v-4l-2.625 2.313c-3.05 2.428-5.841 4.088-9.375 5.687 2.365-4.73 5.218-7.198 9.125-10.75l3.883-3.547z"/><path fill="#d5a48d" d="m325 319 1 2c-1.312 3.625-1.312 3.625-3 7h-2v2h-2v4h-2l-2 5-3 1v2h-2c2.11-5.276 4.76-9.136 8.063-13.75l3.285-4.61C324 320 324 320 325 319"/></svg>